<svg width="404" height="261" viewBox="0 0 404 320" fill="none" xmlns="http://www.w3.org/2000/svg"> <!-- viewBox 261을 320으로 수정함 20221222 -->
<g filter="url(#filter0_bd_209_1485)">
<mask id="path-1-inside-1_209_1485" fill="white">
<path fill-rule="evenodd" clip-rule="evenodd" d="M265.5 195.997C265.666 195.999 265.833 196 266 196C289.748 196 309 176.748 309 153C309 129.252 289.748 110 266 110C265.833 110 265.666 110.001 265.5 110.003V110H254.391C254.793 107.057 255 104.053 255 101C255 64.5492 225.451 35 189 35C152.549 35 123 64.5492 123 101C123 104.439 123.263 107.817 123.77 111.115C120.631 110.386 117.361 110 114 110C90.2518 110 71 129.252 71 153C71 176.748 90.2518 196 114 196C114.168 196 114.335 195.999 114.502 195.997L114.5 196H265.5V195.997Z"/>
</mask>
<path fill-rule="evenodd" clip-rule="evenodd" d="M265.5 195.997C265.666 195.999 265.833 196 266 196C289.748 196 309 176.748 309 153C309 129.252 289.748 110 266 110C265.833 110 265.666 110.001 265.5 110.003V110H254.391C254.793 107.057 255 104.053 255 101C255 64.5492 225.451 35 189 35C152.549 35 123 64.5492 123 101C123 104.439 123.263 107.817 123.77 111.115C120.631 110.386 117.361 110 114 110C90.2518 110 71 129.252 71 153C71 176.748 90.2518 196 114 196C114.168 196 114.335 195.999 114.502 195.997L114.5 196H265.5V195.997Z" fill="url(#paint0_linear_209_1485)" shape-rendering="crispEdges"/>
<path d="M265.5 195.997L265.523 193.997C264.988 193.991 264.474 194.199 264.094 194.575C263.714 194.951 263.5 195.463 263.5 195.997H265.5ZM265.5 110.003H263.5C263.5 110.537 263.714 111.049 264.094 111.425C264.474 111.801 264.988 112.009 265.523 112.003L265.5 110.003ZM265.5 110H267.5C267.5 108.895 266.605 108 265.5 108V110ZM254.391 110L252.41 109.73C252.332 110.302 252.505 110.88 252.885 111.315C253.265 111.75 253.814 112 254.391 112V110ZM123.77 111.115L123.318 113.063C123.964 113.213 124.643 113.033 125.13 112.582C125.617 112.13 125.848 111.467 125.747 110.811L123.77 111.115ZM114.502 195.997L116.072 197.237C116.549 196.632 116.637 195.807 116.297 195.115C115.957 194.423 115.25 193.988 114.479 193.997L114.502 195.997ZM114.5 196L112.931 194.76C112.455 195.362 112.366 196.182 112.7 196.872C113.034 197.562 113.733 198 114.5 198V196ZM265.5 196V198C266.605 198 267.5 197.105 267.5 196H265.5ZM265.477 197.997C265.651 197.999 265.825 198 266 198V194C265.841 194 265.682 193.999 265.523 193.997L265.477 197.997ZM266 198C290.853 198 311 177.853 311 153H307C307 175.644 288.644 194 266 194V198ZM311 153C311 128.147 290.853 108 266 108V112C288.644 112 307 130.356 307 153H311ZM266 108C265.826 108 265.651 108.001 265.477 108.003L265.523 112.003C265.682 112.001 265.841 112 266 112V108ZM263.5 110V110.003H267.5V110H263.5ZM254.391 112H265.5V108H254.391V112ZM256.373 110.27C256.787 107.238 257 104.143 257 101H253C253 103.962 252.799 106.876 252.41 109.73L256.373 110.27ZM257 101C257 63.4446 226.555 33 189 33V37C224.346 37 253 65.6538 253 101H257ZM189 33C151.445 33 121 63.4446 121 101H125C125 65.6538 153.654 37 189 37V33ZM121 101C121 104.542 121.271 108.021 121.793 111.419L125.747 110.811C125.255 107.614 125 104.337 125 101H121ZM124.223 109.167C120.937 108.403 117.514 108 114 108V112C117.207 112 120.326 112.368 123.318 113.063L124.223 109.167ZM114 108C89.1472 108 69 128.147 69 153H73C73 130.356 91.3563 112 114 112V108ZM69 153C69 177.853 89.1472 198 114 198V194C91.3563 194 73 175.644 73 153H69ZM114 198C114.175 198 114.35 197.999 114.525 197.997L114.479 193.997C114.32 193.999 114.16 194 114 194V198ZM116.069 197.24L116.072 197.237L112.933 194.757L112.931 194.76L116.069 197.24ZM265.5 194H114.5V198H265.5V194ZM263.5 195.997V196H267.5V195.997H263.5Z" fill="url(#paint1_linear_209_1485)" mask="url(#path-1-inside-1_209_1485)"/>
</g>
<g filter="url(#filter1_bd_209_1485)">
<mask id="path-3-inside-2_209_1485" fill="white">
<path fill-rule="evenodd" clip-rule="evenodd" d="M343.563 151.351C343.683 151.352 343.804 151.353 343.924 151.353C361.087 151.353 375 137.44 375 120.277C375 103.115 361.087 89.2017 343.924 89.2017C343.804 89.2017 343.683 89.2024 343.563 89.2037V89.2017H335.535C335.825 87.075 335.975 84.9037 335.975 82.6975C335.975 56.3549 314.62 35 288.277 35C261.935 35 240.58 56.3549 240.58 82.6975C240.58 85.1831 240.77 87.6243 241.136 90.0074C238.868 89.4803 236.504 89.2017 234.076 89.2017C216.913 89.2017 203 103.115 203 120.277C203 137.44 216.913 151.353 234.076 151.353C234.197 151.353 234.318 151.352 234.439 151.351L234.437 151.353H343.563V151.351Z"/>
</mask>
<path fill-rule="evenodd" clip-rule="evenodd" d="M343.563 151.351C343.683 151.352 343.804 151.353 343.924 151.353C361.087 151.353 375 137.44 375 120.277C375 103.115 361.087 89.2017 343.924 89.2017C343.804 89.2017 343.683 89.2024 343.563 89.2037V89.2017H335.535C335.825 87.075 335.975 84.9037 335.975 82.6975C335.975 56.3549 314.62 35 288.277 35C261.935 35 240.58 56.3549 240.58 82.6975C240.58 85.1831 240.77 87.6243 241.136 90.0074C238.868 89.4803 236.504 89.2017 234.076 89.2017C216.913 89.2017 203 103.115 203 120.277C203 137.44 216.913 151.353 234.076 151.353C234.197 151.353 234.318 151.352 234.439 151.351L234.437 151.353H343.563V151.351Z" fill="url(#paint2_linear_209_1485)" shape-rendering="crispEdges"/>
<path d="M343.563 151.351L343.586 149.351C343.052 149.345 342.537 149.553 342.157 149.929C341.777 150.304 341.563 150.816 341.563 151.351H343.563ZM343.563 89.2037H341.563C341.563 89.7381 341.777 90.2503 342.157 90.626C342.537 91.0017 343.051 91.2097 343.586 91.2036L343.563 89.2037ZM343.563 89.2017H345.563C345.563 88.0971 344.668 87.2017 343.563 87.2017V89.2017ZM335.535 89.2017L333.553 88.9315C333.475 89.5037 333.649 90.0818 334.028 90.5169C334.408 90.952 334.957 91.2017 335.535 91.2017V89.2017ZM241.136 90.0074L240.684 91.9555C241.33 92.1057 242.009 91.9253 242.496 91.4741C242.983 91.0228 243.214 90.3594 243.113 89.7033L241.136 90.0074ZM234.439 151.351L236.008 152.59C236.486 151.985 236.573 151.16 236.233 150.468C235.893 149.777 235.186 149.342 234.416 149.351L234.439 151.351ZM234.437 151.353L232.867 150.114C232.392 150.715 232.303 151.535 232.637 152.225C232.971 152.915 233.67 153.353 234.437 153.353V151.353ZM343.563 151.353V153.353C344.668 153.353 345.563 152.458 345.563 151.353H343.563ZM343.54 153.351C343.668 153.352 343.796 153.353 343.924 153.353V149.353C343.811 149.353 343.699 149.352 343.586 149.351L343.54 153.351ZM343.924 153.353C362.192 153.353 377 138.544 377 120.277H373C373 136.335 359.982 149.353 343.924 149.353V153.353ZM377 120.277C377 102.01 362.192 87.2017 343.924 87.2017V91.2017C359.982 91.2017 373 104.219 373 120.277H377ZM343.924 87.2017C343.796 87.2017 343.668 87.2024 343.54 87.2039L343.586 91.2036C343.699 91.2023 343.811 91.2017 343.924 91.2017V87.2017ZM341.563 89.2017V89.2037H345.563V89.2017H341.563ZM335.535 91.2017H343.563V87.2017H335.535V91.2017ZM337.517 89.4719C337.819 87.2559 337.975 84.9944 337.975 82.6975H333.975C333.975 84.8131 333.831 86.8941 333.553 88.9315L337.517 89.4719ZM337.975 82.6975C337.975 55.2503 315.724 33 288.277 33V37C313.515 37 333.975 57.4595 333.975 82.6975H337.975ZM288.277 33C260.83 33 238.58 55.2503 238.58 82.6975H242.58C242.58 57.4595 263.039 37 288.277 37V33ZM238.58 82.6975C238.58 85.2852 238.778 87.8281 239.16 90.3114L243.113 89.7033C242.762 87.4205 242.58 85.081 242.58 82.6975H238.58ZM241.589 88.0592C239.173 87.498 236.658 87.2017 234.076 87.2017V91.2017C236.351 91.2017 238.563 91.4627 240.684 91.9555L241.589 88.0592ZM234.076 87.2017C215.808 87.2017 201 102.01 201 120.277H205C205 104.219 218.018 91.2017 234.076 91.2017V87.2017ZM201 120.277C201 138.544 215.808 153.353 234.076 153.353V149.353C218.018 149.353 205 136.335 205 120.277H201ZM234.076 153.353C234.204 153.353 234.333 153.352 234.461 153.351L234.416 149.351C234.303 149.352 234.189 149.353 234.076 149.353V153.353ZM236.007 152.592L236.008 152.59L232.869 150.112L232.867 150.114L236.007 152.592ZM343.563 149.353H234.437V153.353H343.563V149.353ZM341.563 151.351V151.353H345.563V151.351H341.563Z" fill="url(#paint3_linear_209_1485)" mask="url(#path-3-inside-2_209_1485)"/>
</g>
<line x1="323.408" y1="158.25" x2="323.408" y2="238.75" stroke="white" stroke-width="4.5" stroke-linecap="round"/>
<path d="M313.105 164.053L322.947 173.895L331.895 164.053" stroke="white" stroke-width="4.5" stroke-linecap="round"/>
<path d="M331.895 237.421L322.052 227.579L313.105 237.421" stroke="white" stroke-width="4.5" stroke-linecap="round"/>
<path d="M318.473 179.263L322.947 183.737L327.421 179.263" stroke="white" stroke-width="4.5" stroke-linecap="round"/>
<path d="M326.526 223.105L322.052 218.632L317.579 223.105" stroke="white" stroke-width="4.5" stroke-linecap="round"/>
<line x1="362.75" y1="199.408" x2="282.25" y2="199.408" stroke="white" stroke-width="4.5" stroke-linecap="round"/>
<path d="M356.947 189.105L347.105 198.947L356.947 207.895" stroke="white" stroke-width="4.5" stroke-linecap="round"/>
<path d="M283.579 207.895L293.421 198.053L283.579 189.105" stroke="white" stroke-width="4.5" stroke-linecap="round"/>
<path d="M341.737 194.474L337.263 198.947L341.737 203.421" stroke="white" stroke-width="4.5" stroke-linecap="round"/>
<path d="M297.895 202.526L302.368 198.053L297.895 193.579" stroke="white" stroke-width="4.5" stroke-linecap="round"/>
<line x1="351.579" y1="169.919" x2="294.657" y2="226.841" stroke="white" stroke-width="4.5" stroke-linecap="round"/>
<path d="M339.947 167.632V181.55L353.233 180.918" stroke="white" stroke-width="4.5" stroke-linecap="round"/>
<path d="M301.474 232.053L301.474 218.134L288.187 218.767" stroke="white" stroke-width="4.5" stroke-linecap="round"/>
<path d="M333.684 181.053V187.379H340.011" stroke="white" stroke-width="4.5" stroke-linecap="round"/>
<path d="M308.632 218.632L308.632 212.305L302.305 212.305" stroke="white" stroke-width="4.5" stroke-linecap="round"/>
<line x1="351.081" y1="227.579" x2="294.159" y2="170.657" stroke="white" stroke-width="4.5" stroke-linecap="round"/>
<path d="M353.368 215.947H339.45L340.082 229.233" stroke="white" stroke-width="4.5" stroke-linecap="round"/>
<path d="M288.947 177.474L302.866 177.474L302.233 164.187" stroke="white" stroke-width="4.5" stroke-linecap="round"/>
<path d="M339.947 209.684H333.621V216.011" stroke="white" stroke-width="4.5" stroke-linecap="round"/>
<path d="M302.369 184.632L308.695 184.632L308.695 178.305" stroke="white" stroke-width="4.5" stroke-linecap="round"/>
<path d="M140.101 210.161C139.422 208.995 137.921 208.597 136.747 209.269L131.712 212.152V206.387C131.712 205.043 130.612 203.953 129.256 203.953C127.901 203.953 126.801 205.043 126.801 206.387V212.152L121.766 209.269C120.592 208.596 119.091 208.995 118.412 210.161C117.735 211.325 118.136 212.813 119.31 213.486L124.346 216.368L119.31 219.249C118.136 219.922 117.735 221.41 118.412 222.575C118.867 223.356 119.692 223.793 120.541 223.793C120.957 223.793 121.379 223.687 121.766 223.467L126.801 220.584V226.348C126.801 227.692 127.901 228.783 129.256 228.783C130.612 228.783 131.712 227.692 131.712 226.348V220.584L136.747 223.467C137.133 223.687 137.556 223.793 137.972 223.793C138.821 223.793 139.646 223.356 140.101 222.575C140.779 221.41 140.376 219.922 139.202 219.249L134.167 216.368L139.202 213.486C140.376 212.813 140.779 211.325 140.101 210.161V210.161Z" fill="white"/>
<path d="M258.387 219.249L253.352 216.368L258.387 213.486C259.562 212.813 259.964 211.325 259.286 210.161C258.607 208.995 257.106 208.597 255.932 209.269L250.897 212.152V206.387C250.897 205.043 249.797 203.952 248.441 203.952C247.086 203.952 245.986 205.043 245.986 206.387V212.152L240.951 209.269C239.777 208.596 238.276 208.995 237.597 210.161C236.92 211.325 237.321 212.813 238.496 213.486L243.531 216.368L238.496 219.249C237.321 219.922 236.92 221.41 237.597 222.574C238.052 223.356 238.877 223.793 239.726 223.793C240.142 223.793 240.564 223.687 240.951 223.466L245.986 220.584V226.348C245.986 227.692 247.086 228.783 248.441 228.783C249.797 228.783 250.897 227.692 250.897 226.348V220.584L255.932 223.466C256.318 223.687 256.741 223.793 257.157 223.793C258.006 223.793 258.831 223.356 259.286 222.574C259.964 221.41 259.562 219.922 258.387 219.249V219.249Z" fill="white"/>
<path d="M199.693 210.161C199.014 208.996 197.513 208.597 196.339 209.269L191.304 212.152V206.387C191.304 205.043 190.205 203.952 188.849 203.952C187.493 203.952 186.394 205.043 186.394 206.387V212.152L181.359 209.269C180.184 208.597 178.683 208.996 178.005 210.161C177.326 211.325 177.729 212.813 178.903 213.486L183.938 216.368L178.903 219.249C177.729 219.922 177.326 221.41 178.005 222.574C178.46 223.356 179.285 223.793 180.133 223.793C180.55 223.793 180.972 223.687 181.359 223.466L186.394 220.584V226.348C186.394 227.692 187.493 228.783 188.849 228.783C190.205 228.783 191.304 227.692 191.304 226.348V220.585L196.339 223.466C196.726 223.688 197.148 223.793 197.564 223.793C198.413 223.793 199.238 223.356 199.693 222.576C200.37 221.411 199.969 219.922 198.795 219.25L193.76 216.368L198.795 213.486C199.969 212.813 200.371 211.325 199.693 210.161V210.161Z" fill="white"/>
<path d="M152.598 240.888C152.089 240.014 150.964 239.715 150.083 240.219L146.307 242.381V238.058C146.307 237.05 145.482 236.232 144.465 236.232C143.448 236.232 142.623 237.05 142.623 238.058V242.381L138.847 240.219C137.966 239.715 136.841 240.014 136.332 240.888C135.824 241.761 136.125 242.877 137.006 243.382L140.782 245.543L137.006 247.705C136.125 248.209 135.824 249.325 136.332 250.198C136.673 250.784 137.292 251.112 137.928 251.112C138.24 251.112 138.557 251.033 138.847 250.867L142.623 248.705V253.029C142.623 254.037 143.448 254.855 144.465 254.855C145.482 254.855 146.307 254.037 146.307 253.029V248.705L150.083 250.867C150.373 251.033 150.69 251.112 151.002 251.112C151.638 251.112 152.257 250.784 152.598 250.198C153.107 249.325 152.805 248.209 151.924 247.705L148.148 245.543L151.924 243.382C152.805 242.877 153.107 241.761 152.598 240.888V240.888Z" fill="white"/>
<path d="M241.313 247.705L237.537 245.543L241.313 243.382C242.194 242.877 242.496 241.761 241.987 240.888C241.478 240.014 240.352 239.715 239.471 240.219L235.695 242.381V238.058C235.695 237.05 234.87 236.232 233.854 236.232C232.837 236.232 232.012 237.05 232.012 238.058V242.381L228.236 240.219C227.355 239.715 226.229 240.014 225.72 240.888C225.213 241.761 225.514 242.877 226.394 243.382L230.171 245.543L226.394 247.705C225.514 248.209 225.213 249.325 225.72 250.198C226.062 250.784 226.68 251.112 227.317 251.112C227.629 251.112 227.946 251.033 228.236 250.867L232.012 248.705V253.029C232.012 254.037 232.837 254.855 233.854 254.855C234.87 254.855 235.695 254.037 235.695 253.029V248.705L239.471 250.867C239.761 251.033 240.078 251.112 240.39 251.112C241.027 251.112 241.646 250.784 241.987 250.198C242.496 249.325 242.194 248.209 241.313 247.705V247.705Z" fill="white"/>
<path d="M197.292 240.888C196.783 240.015 195.658 239.715 194.777 240.219L191.001 242.381V238.058C191.001 237.05 190.176 236.232 189.159 236.232C188.143 236.232 187.318 237.05 187.318 238.058V242.381L183.542 240.219C182.661 239.715 181.535 240.015 181.026 240.888C180.517 241.761 180.819 242.877 181.7 243.382L185.476 245.543L181.7 247.705C180.819 248.209 180.517 249.325 181.026 250.198C181.367 250.784 181.986 251.112 182.623 251.112C182.935 251.112 183.252 251.033 183.542 250.867L187.318 248.705V253.029C187.318 254.037 188.143 254.855 189.159 254.855C190.176 254.855 191.001 254.037 191.001 253.029V248.706L194.777 250.867C195.067 251.034 195.384 251.112 195.696 251.112C196.332 251.112 196.951 250.784 197.292 250.199C197.8 249.326 197.499 248.209 196.618 247.705L192.842 245.543L196.618 243.382C197.499 242.877 197.801 241.761 197.292 240.888V240.888Z" fill="white"/>
<defs>
<filter id="filter0_bd_209_1485" x="0" y="0" width="338" height="261" filterUnits="userSpaceOnUse" color-interpolation-filters="sRGB">
<feFlood flood-opacity="0" result="BackgroundImageFix"/>
<feGaussianBlur in="BackgroundImageFix" stdDeviation="7"/>
<feComposite in2="SourceAlpha" operator="in" result="effect1_backgroundBlur_209_1485"/>
<feColorMatrix in="SourceAlpha" type="matrix" values="0 0 0 0 0 0 0 0 0 0 0 0 0 0 0 0 0 0 127 0" result="hardAlpha"/>
<feOffset dx="-21" dy="15"/>
<feGaussianBlur stdDeviation="25"/>
<feComposite in2="hardAlpha" operator="out"/>
<feColorMatrix type="matrix" values="0 0 0 0 0.113725 0 0 0 0 0.14902 0 0 0 0 0.27451 0 0 0 0.25 0"/>
<feBlend mode="normal" in2="effect1_backgroundBlur_209_1485" result="effect2_dropShadow_209_1485"/>
<feBlend mode="normal" in="SourceGraphic" in2="effect2_dropShadow_209_1485" result="shape"/>
</filter>
<filter id="filter1_bd_209_1485" x="132" y="0" width="272" height="216.353" filterUnits="userSpaceOnUse" color-interpolation-filters="sRGB">
<feFlood flood-opacity="0" result="BackgroundImageFix"/>
<feGaussianBlur in="BackgroundImageFix" stdDeviation="7"/>
<feComposite in2="SourceAlpha" operator="in" result="effect1_backgroundBlur_209_1485"/>
<feColorMatrix in="SourceAlpha" type="matrix" values="0 0 0 0 0 0 0 0 0 0 0 0 0 0 0 0 0 0 127 0" result="hardAlpha"/>
<feOffset dx="-21" dy="15"/>
<feGaussianBlur stdDeviation="25"/>
<feComposite in2="hardAlpha" operator="out"/>
<feColorMatrix type="matrix" values="0 0 0 0 0.113438 0 0 0 0 0.148981 0 0 0 0 0.275 0 0 0 0.25 0"/>
<feBlend mode="normal" in2="effect1_backgroundBlur_209_1485" result="effect2_dropShadow_209_1485"/>
<feBlend mode="normal" in="SourceGraphic" in2="effect2_dropShadow_209_1485" result="shape"/>
</filter>
<linearGradient id="paint0_linear_209_1485" x1="190" y1="-16.5" x2="190" y2="218.5" gradientUnits="userSpaceOnUse">
<stop stop-color="white"/>
<stop offset="1" stop-color="white" stop-opacity="0"/>
</linearGradient>
<linearGradient id="paint1_linear_209_1485" x1="190" y1="35" x2="190" y2="196" gradientUnits="userSpaceOnUse">
<stop stop-color="white"/>
<stop offset="1" stop-color="white" stop-opacity="0"/>
</linearGradient>
<linearGradient id="paint2_linear_209_1485" x1="297" y1="38.5" x2="297" y2="164.5" gradientUnits="userSpaceOnUse">
<stop stop-color="white"/>
<stop offset="1" stop-color="white" stop-opacity="0"/>
</linearGradient>
<linearGradient id="paint3_linear_209_1485" x1="289" y1="35" x2="289" y2="151.353" gradientUnits="userSpaceOnUse">
<stop stop-color="white"/>
<stop offset="1" stop-color="white" stop-opacity="0"/>
</linearGradient>
</defs>
</svg>
