<svg width="450" height="450" viewBox="0 0 400 480" fill="none" xmlns="http://www.w3.org/2000/svg">
<g filter="url(#filter0_f_2_76)">
<circle cx="225" cy="225" r="125" fill="#FFC701" fill-opacity="0.35"/>
</g>
<circle cx="225" cy="229.098" r="119.902" fill="url(#paint0_linear_2_76)" stroke="url(#paint1_linear_2_76)" stroke-width="2"/>
<mask id="mask0_2_76" style="mask-type:alpha" maskUnits="userSpaceOnUse" x="104" y="176" width="242" height="174">
<path d="M345.902 229.098C345.902 295.871 291.772 350 225 350C158.228 350 104.098 295.871 104.098 229.098C104.098 162.326 149.007 177.869 215.779 177.869C282.551 177.869 345.902 162.326 345.902 229.098Z" fill="url(#paint2_linear_2_76)"/>
</mask>
<g mask="url(#mask0_2_76)">
<g filter="url(#filter1_f_2_76)">
<path fill-rule="evenodd" clip-rule="evenodd" d="M409.427 450.41C409.427 499.074 369.976 538.524 321.312 538.524C320.97 538.524 320.629 538.522 320.288 538.519V538.524H10.8612L10.8654 538.519C10.5227 538.523 10.1796 538.525 9.83607 538.525C-38.8284 538.525 -78.2787 499.075 -78.2787 450.41C-78.2787 401.746 -38.8284 362.296 9.83607 362.296C51.7835 362.296 86.8848 391.607 95.7756 430.865L125.616 393.033L218.853 362.295H320.288V362.301C320.629 362.297 320.97 362.295 321.312 362.295C369.976 362.295 409.427 401.745 409.427 450.41Z" fill="#E18700"/>
</g>
</g>
<defs>
<filter id="filter0_f_2_76" x="0" y="0" width="450" height="450" filterUnits="userSpaceOnUse" color-interpolation-filters="sRGB">
<feFlood flood-opacity="0" result="BackgroundImageFix"/>
<feBlend mode="normal" in="SourceGraphic" in2="BackgroundImageFix" result="shape"/>
<feGaussianBlur stdDeviation="50" result="effect1_foregroundBlur_2_76"/>
</filter>
<filter id="filter1_f_2_76" x="-92.2787" y="348.295" width="515.705" height="204.23" filterUnits="userSpaceOnUse" color-interpolation-filters="sRGB">
<feFlood flood-opacity="0" result="BackgroundImageFix"/>
<feBlend mode="normal" in="SourceGraphic" in2="BackgroundImageFix" result="shape"/>
<feGaussianBlur stdDeviation="7" result="effect1_foregroundBlur_2_76"/>
</filter>
<linearGradient id="paint0_linear_2_76" x1="225" y1="108.196" x2="225" y2="350" gradientUnits="userSpaceOnUse">
<stop stop-color="#FFE600"/>
<stop offset="1" stop-color="#FF7A00"/>
</linearGradient>
<linearGradient id="paint1_linear_2_76" x1="225" y1="108.196" x2="225" y2="350" gradientUnits="userSpaceOnUse">
<stop stop-color="white"/>
<stop offset="1" stop-color="white" stop-opacity="0"/>
</linearGradient>
<linearGradient id="paint2_linear_2_76" x1="225" y1="108.197" x2="225" y2="350" gradientUnits="userSpaceOnUse">
<stop stop-color="#FFD600"/>
<stop offset="1" stop-color="#FF7A00"/>
</linearGradient>
</defs>
</svg>
